<svg width="525" height="330" viewBox="0 0 525 330" fill="none" xmlns="http://www.w3.org/2000/svg">
<path d="M332.251 206.455V216.767C332.244 218.443 331.463 219.338 330.071 219.338C328.786 219.338 327.891 218.571 327.884 217.364H325.703C325.703 219.821 327.55 221.199 330.014 221.199C332.685 221.199 334.432 219.565 334.439 216.767V206.455H332.251ZM340.637 221.241C342.441 221.241 343.457 220.325 343.862 219.509H343.947V221H346.021V213.756C346.021 210.581 343.521 209.949 341.788 209.949C339.814 209.949 337.995 210.744 337.285 212.733L339.281 213.188C339.593 212.413 340.389 211.668 341.816 211.668C343.187 211.668 343.89 212.385 343.89 213.621V213.67C343.89 214.445 343.095 214.43 341.135 214.658C339.068 214.899 336.951 215.439 336.951 217.918C336.951 220.062 338.564 221.241 340.637 221.241ZM341.099 219.537C339.899 219.537 339.032 218.997 339.032 217.946C339.032 216.81 340.041 216.405 341.27 216.241C341.958 216.149 343.592 215.964 343.897 215.659V217.065C343.897 218.358 342.868 219.537 341.099 219.537ZM350.973 214.523C350.973 212.783 352.038 211.788 353.516 211.788C354.957 211.788 355.831 212.733 355.831 214.317V221H357.955V214.061C357.955 211.362 356.47 209.949 354.24 209.949C352.599 209.949 351.527 210.709 351.023 211.866H350.888V210.091H348.849V221H350.973V214.523ZM365.504 221.22C367.884 221.22 369.567 220.048 370.05 218.273L368.04 217.911C367.656 218.94 366.733 219.466 365.526 219.466C363.707 219.466 362.486 218.287 362.429 216.185H370.185V215.432C370.185 211.49 367.827 209.949 365.355 209.949C362.315 209.949 360.312 212.264 360.312 215.616C360.312 219.004 362.287 221.22 365.504 221.22ZM362.436 214.594C362.521 213.045 363.643 211.703 365.369 211.703C367.017 211.703 368.097 212.925 368.104 214.594H362.436ZM382.713 221C387.145 221 389.709 218.251 389.709 213.706C389.709 209.182 387.145 206.455 382.862 206.455H378.004V221H382.713ZM380.199 219.082V208.372H382.727C385.909 208.372 387.55 210.276 387.55 213.706C387.55 217.151 385.909 219.082 382.592 219.082H380.199ZM392.749 221.135C393.523 221.135 394.169 220.503 394.169 219.714C394.169 218.94 393.523 218.301 392.749 218.301C391.967 218.301 391.328 218.94 391.328 219.714C391.328 220.503 391.967 221.135 392.749 221.135ZM402.243 221H404.437V215.496H407.42C407.47 215.496 407.512 215.496 407.562 215.496L410.517 221H413.017L409.792 215.112C411.575 214.452 412.463 212.967 412.463 211.014C412.463 208.337 410.801 206.455 407.427 206.455H402.243V221ZM404.437 213.607V208.337H407.193C409.359 208.337 410.254 209.366 410.254 211.014C410.254 212.655 409.359 213.607 407.221 213.607H404.437ZM419.421 221.22C422.496 221.22 424.506 218.969 424.506 215.595C424.506 212.2 422.496 209.949 419.421 209.949C416.346 209.949 414.336 212.2 414.336 215.595C414.336 218.969 416.346 221.22 419.421 221.22ZM419.428 219.438C417.418 219.438 416.481 217.683 416.481 215.588C416.481 213.5 417.418 211.724 419.428 211.724C421.424 211.724 422.362 213.5 422.362 215.588C422.362 217.683 421.424 219.438 419.428 219.438ZM431.472 221.22C434.05 221.22 435.719 219.672 435.953 217.548H433.887C433.617 218.727 432.701 219.423 431.486 219.423C429.689 219.423 428.532 217.925 428.532 215.545C428.532 213.209 429.711 211.739 431.486 211.739C432.836 211.739 433.659 212.591 433.887 213.614H435.953C435.726 211.412 433.929 209.949 431.451 209.949C428.375 209.949 426.387 212.264 426.387 215.595C426.387 218.884 428.304 221.22 431.472 221.22ZM438.224 221H440.348V217.129L441.406 216.071L445.114 221H447.72L443.004 214.771L447.422 210.091H444.879L440.533 214.707H440.348V206.455H438.224V221ZM453.61 221.22C455.989 221.22 457.672 220.048 458.155 218.273L456.145 217.911C455.762 218.94 454.838 219.466 453.631 219.466C451.813 219.466 450.591 218.287 450.534 216.185H458.29V215.432C458.29 211.49 455.932 209.949 453.461 209.949C450.421 209.949 448.418 212.264 448.418 215.616C448.418 219.004 450.392 221.22 453.61 221.22ZM450.542 214.594C450.627 213.045 451.749 211.703 453.475 211.703C455.123 211.703 456.202 212.925 456.209 214.594H450.542ZM465.739 210.091H463.501V207.477H461.378V210.091H459.78V211.795H461.378V218.237C461.371 220.219 462.884 221.178 464.56 221.142C465.234 221.135 465.689 221.007 465.938 220.915L465.554 219.161C465.412 219.189 465.149 219.253 464.808 219.253C464.119 219.253 463.501 219.026 463.501 217.797V211.795H465.739V210.091Z" fill="white"/>
<path fill-rule="evenodd" clip-rule="evenodd" d="M443.6 240.906C443.541 240.926 443.451 240.961 443.321 241.018C442.977 241.167 442.568 241.38 442.042 241.681C440.974 242.291 439.636 243.154 438.131 244.216C436.393 245.442 435.606 246.06 434.625 246.829C433.897 247.399 433.064 248.052 431.659 249.098C431.097 249.661 430.184 249.661 429.622 249.098C429.059 248.536 429.059 247.623 429.622 247.062C432.801 244.48 433.375 244.049 436.47 241.863C438.025 240.766 439.478 239.829 440.614 239.179C441.191 238.85 441.737 238.567 442.165 238.38C442.542 238.215 443.085 238 443.6 238C444.116 238 444.659 238.215 445.036 238.38C445.464 238.567 446.01 238.85 446.587 239.179C447.723 239.829 449.176 240.766 450.731 241.863C453.826 244.049 454.4 244.48 457.578 247.062C458.141 247.623 458.141 248.536 457.578 249.098C457.017 249.661 456.104 249.661 455.542 249.098C454.137 248.052 453.303 247.399 452.576 246.829C451.595 246.06 450.807 245.442 449.069 244.216C447.565 243.154 446.227 242.291 445.158 241.681C444.633 241.38 444.224 241.167 443.88 241.018C443.75 240.961 443.659 240.926 443.6 240.906ZM431 263.5C431 262.672 431.622 262 432.389 262H454.611C455.378 262 456 262.672 456 263.5C456 264.328 455.378 265 454.611 265H432.389C431.622 265 431 264.328 431 263.5ZM442 259.556C442 260.353 442.672 261 443.5 261C444.328 261 445 260.353 445 259.556V249.444C445 248.647 444.328 248 443.5 248C442.672 248 442 248.647 442 249.444V259.556ZM436.5 261C435.672 261 435 260.353 435 259.556V249.444C435 248.647 435.672 248 436.5 248C437.328 248 438 248.647 438 249.444V259.556C438 260.353 437.328 261 436.5 261ZM449 259.556C449 260.353 449.672 261 450.5 261C451.328 261 452 260.353 452 259.556V249.444C452 248.647 451.328 248 450.5 248C449.672 248 449 248.647 449 249.444V259.556Z" fill="white"/>
<rect x="62" y="102" width="66" height="48" rx="4" fill="white"/>
<path d="M94.5 102V111M94.5 120V111M94.5 120H88.5C87.3954 120 86.5 120.895 86.5 122V124M94.5 120H100.5C101.605 120 102.5 120.895 102.5 122V130C102.5 131.105 101.605 132 100.5 132H88.5C87.3954 132 86.5 131.105 86.5 130V124M94.5 111H128M102.5 124H128M102.5 128H128M94.5 132V140M94.5 150V140M62 140H94.5M86.5 128H62M86.5 124H62" stroke="#B4B4B4"/>
</svg>
